<svg width="59" height="59" viewBox="0 0 59 59" fill="none" xmlns="http://www.w3.org/2000/svg">
<path d="M25.4028 9.01389C25.4028 6.62326 24.4531 4.33054 22.7627 2.64011C21.0722 0.949675 18.7795 0 16.3889 0C13.9983 0 11.7055 0.949675 10.0151 2.64011C8.32467 4.33054 7.375 6.62326 7.375 9.01389C7.375 11.4045 8.32467 13.6972 10.0151 15.3877C11.7055 17.0781 13.9983 18.0278 16.3889 18.0278C18.7795 18.0278 21.0722 17.0781 22.7627 15.3877C24.4531 13.6972 25.4028 11.4045 25.4028 9.01389ZM10.6528 9.01389C10.6528 8.26061 10.8011 7.51471 11.0894 6.81877C11.3777 6.12284 11.8002 5.49049 12.3328 4.95785C12.8655 4.4252 13.4978 4.00268 14.1938 3.71441C14.8897 3.42615 15.6356 3.27778 16.3889 3.27778C17.1422 3.27778 17.8881 3.42615 18.584 3.71441C19.2799 4.00268 19.9123 4.4252 20.4449 4.95785C20.9776 5.49049 21.4001 6.12284 21.6884 6.81877C21.9766 7.51471 22.125 8.26061 22.125 9.01389C22.125 10.5352 21.5207 11.9942 20.4449 13.0699C19.3692 14.1457 17.9102 14.75 16.3889 14.75C14.8676 14.75 13.4086 14.1457 12.3328 13.0699C11.2571 11.9942 10.6528 10.5352 10.6528 9.01389Z" fill="#2C4543"/>
<path d="M4.91667 21.3056H18.6276C18.0901 22.3217 17.6902 23.423 17.4542 24.5834H4.91667C4.48201 24.5834 4.06515 24.756 3.7578 25.0634C3.45045 25.3707 3.27778 25.7876 3.27778 26.2223V27.8612C3.27778 31.9912 6.88006 36.4293 13.4258 37.465C12.3703 38.1862 11.4919 39.1465 10.8658 40.2643C3.94972 38.3927 0 33.063 0 27.8612V26.2223C0 24.9183 0.518005 23.6677 1.44006 22.7457C2.36211 21.8236 3.61269 21.3056 4.91667 21.3056Z" fill="#2C4543"/>
<path d="M22.5479 21.3056C24.1999 19.3062 26.7008 18.0278 29.5 18.0278C31.463 18.0244 33.3732 18.6633 34.9391 19.8469C36.5051 21.0305 37.6408 22.694 38.173 24.5834C38.6474 26.2698 38.6207 28.0578 38.0961 29.7293C37.5715 31.4008 36.5716 32.8834 35.2186 33.9962C33.8656 35.1091 32.218 35.804 30.4767 35.9963C28.7354 36.1885 26.9758 35.8697 25.4126 35.0788C24.2091 34.4663 23.1585 33.5911 22.3387 32.518C21.5188 31.4449 20.9505 30.2013 20.6758 28.8791C20.4011 27.5569 20.427 26.1898 20.7516 24.8789C21.0762 23.5681 21.6912 22.3469 22.5511 21.3056H22.5479ZM24.3178 24.5834C23.995 25.2644 23.8095 26.0022 23.7718 26.7549C23.7341 27.5076 23.8451 28.2603 24.0983 28.9701C24.3516 29.6799 24.7421 30.3328 25.2477 30.8917C25.7533 31.4506 26.364 31.9043 27.045 32.2272C27.7259 32.55 28.4638 32.7356 29.2165 32.7732C29.9691 32.8109 30.7219 32.6999 31.4317 32.4467C32.1414 32.1935 32.7944 31.8029 33.3533 31.2973C33.9121 30.7917 34.3659 30.181 34.6887 29.5001C35.3407 28.1244 35.4195 26.546 34.9078 25.1122C34.396 23.6784 33.3357 22.5066 31.96 21.8547C30.5843 21.2027 29.0059 21.1239 27.5721 21.6356C26.1383 22.1473 24.9666 23.2077 24.3146 24.5834H24.3178Z" fill="#2C4543"/>
<path d="M48.1335 40.2643C47.5092 39.1459 46.6326 38.1886 45.5736 37.4683C52.116 36.4293 55.7216 31.9879 55.7216 27.8612V26.2223C55.7216 25.7876 55.5489 25.3707 55.2415 25.0634C54.9342 24.756 54.5173 24.5834 54.0827 24.5834H41.5452C41.3136 23.4405 40.9195 22.3367 40.375 21.3056H54.0827C55.3866 21.3056 56.6372 21.8236 57.5593 22.7457C58.4813 23.6677 58.9993 24.9183 58.9993 26.2223V27.8612C58.9993 33.063 55.0463 38.3894 48.1335 40.2643Z" fill="#2C4543"/>
<path d="M44.2076 40.5462C43.3423 39.7923 42.2115 39.3334 40.9725 39.3334H18.028C17.3819 39.3317 16.7417 39.4577 16.1444 39.7041C15.5471 39.9506 15.0044 40.3127 14.5475 40.7696C14.0906 41.2265 13.7286 41.7692 13.4821 42.3665C13.2356 42.9638 13.1096 43.6039 13.1113 44.2501V45.8889C13.1113 52.3494 19.208 59.0001 29.5002 59.0001C39.7925 59.0001 45.8891 52.3494 45.8891 45.8889V44.2501C45.8891 42.7751 45.2401 41.4508 44.2076 40.5462ZM16.3891 44.2501C16.3891 43.8154 16.5618 43.3985 16.8691 43.0912C17.1765 42.7838 17.5934 42.6112 18.028 42.6112H40.9725C41.4071 42.6112 41.824 42.7838 42.1313 43.0912C42.4387 43.3985 42.6113 43.8154 42.6113 44.2501V45.8889C42.6113 50.6024 37.9176 55.7223 29.5002 55.7223C21.0829 55.7223 16.3891 50.6024 16.3891 45.8889V44.2501Z" fill="#2C4543"/>
<path d="M42.6115 0C45.0022 0 47.2949 0.949675 48.9853 2.64011C50.6758 4.33054 51.6254 6.62326 51.6254 9.01389C51.6254 11.4045 50.6758 13.6972 48.9853 15.3877C47.2949 17.0781 45.0022 18.0278 42.6115 18.0278C40.2209 18.0278 37.9282 17.0781 36.2378 15.3877C34.5473 13.6972 33.5977 11.4045 33.5977 9.01389C33.5977 6.62326 34.5473 4.33054 36.2378 2.64011C37.9282 0.949675 40.2209 0 42.6115 0ZM42.6115 3.27778C41.0902 3.27778 39.6312 3.88212 38.5555 4.95785C37.4798 6.03358 36.8754 7.49258 36.8754 9.01389C36.8754 10.5352 37.4798 11.9942 38.5555 13.0699C39.6312 14.1457 41.0902 14.75 42.6115 14.75C44.1329 14.75 45.5919 14.1457 46.6676 13.0699C47.7433 11.9942 48.3477 10.5352 48.3477 9.01389C48.3477 7.49258 47.7433 6.03358 46.6676 4.95785C45.5919 3.88212 44.1329 3.27778 42.6115 3.27778Z" fill="#2C4543"/>
</svg>
