<svg width="21" height="21" viewBox="0 0 21 21" fill="none" xmlns="http://www.w3.org/2000/svg">
<path opacity="0.9" d="M13.3541 10.1826L17.5415 14.37L16.9472 14.9639L12.7598 10.7765L13.3541 10.1826Z" fill="#2C4543" fill-opacity="0.6"/>
<path opacity="0.9" d="M7.67655 10.2007L8.27043 10.7946L4.11243 14.9526L3.51855 14.3604L7.67655 10.2007Z" fill="#2C4543" fill-opacity="0.6"/>
<path d="M10.5003 12.5579C9.87033 12.5579 9.19833 12.3059 8.73633 11.8019L3.48633 6.59386L4.07433 6.00586L9.32433 11.2559C9.99633 11.9279 11.0463 11.9279 11.7183 11.2559L16.9683 6.00586L17.5563 6.59386L12.2643 11.8439C11.8023 12.3059 11.1303 12.5579 10.5003 12.5579Z" fill="#2C4543" fill-opacity="0.6"/>
<path d="M16.3804 15.96H4.62035C3.90635 15.96 3.36035 15.414 3.36035 14.7V6.30004C3.36035 5.58604 3.90635 5.04004 4.62035 5.04004H16.3804C17.0943 5.04004 17.6404 5.58604 17.6404 6.30004V14.7C17.6404 15.414 17.0943 15.96 16.3804 15.96ZM4.62035 5.88004C4.36835 5.88004 4.20035 6.04804 4.20035 6.30004V14.7C4.20035 14.952 4.36835 15.12 4.62035 15.12H16.3804C16.6323 15.12 16.8004 14.952 16.8004 14.7V6.30004C16.8004 6.04804 16.6323 5.88004 16.3804 5.88004H4.62035Z" fill="#2C4543" fill-opacity="0.6"/>
</svg>
