<svg width="59" height="59" viewBox="0 0 59 59" fill="none" xmlns="http://www.w3.org/2000/svg">
<path d="M29.5 56.9429C29.0926 56.9416 28.697 56.8036 28.3751 56.5504C18.1222 48.4767 11.0595 41.5244 6.11749 34.6655C-0.189151 25.9003 -1.62751 17.8079 1.8393 10.6126C4.31032 5.47312 11.4099 1.26808 19.7081 3.71635C23.6646 4.87458 27.1165 7.35845 29.5 10.7621C31.8835 7.35845 35.3354 4.87458 39.2919 3.71635C47.5717 1.30546 54.6897 5.47312 57.1607 10.6126C60.6275 17.8079 59.1892 25.9003 52.8825 34.6655C47.9405 41.5244 40.8778 48.4767 30.6249 56.5504C30.303 56.8036 29.9074 56.9416 29.5 56.9429ZM14.9874 6.76267C13.0128 6.68479 11.0547 7.15336 9.32308 8.11809C7.59147 9.08282 6.15179 10.5073 5.15858 12.2386C2.30031 18.1817 3.59114 24.7976 9.10484 32.4415C14.9644 40.1013 21.8258 46.9169 29.5 52.7004C37.1729 46.9227 44.0343 40.1134 49.8952 32.4602C55.4273 24.7976 56.6997 18.1817 53.8414 12.2573C51.9974 8.51944 46.4652 5.54788 40.3061 7.30465C38.3312 7.89616 36.5004 8.90017 34.9315 10.2521C33.3625 11.604 32.0903 13.2738 31.1965 15.1541C31.0576 15.4968 30.8213 15.79 30.5175 15.9964C30.2138 16.2027 29.8564 16.3129 29.4908 16.3129C29.1251 16.3129 28.7678 16.2027 28.464 15.9964C28.1603 15.79 27.924 15.4968 27.785 15.1541C26.898 13.2691 25.6279 11.5953 24.058 10.2426C22.4881 8.88988 20.6538 7.88868 18.6754 7.30465C17.4768 6.95181 16.2355 6.7694 14.9874 6.76267Z" fill="#2C4543"/>
</svg>
