<svg width="157" height="33" viewBox="0 0 157 33" fill="none" xmlns="http://www.w3.org/2000/svg">
<path d="M32.352 21.464V8.12H30.792V6.056H38.064C39.52 6.056 40.704 6.44 41.616 7.208C42.528 7.976 42.984 9.032 42.984 10.376C42.984 11.256 42.784 12.008 42.384 12.632C41.984 13.256 41.48 13.72 40.872 14.024V14.072C41.736 14.328 42.416 14.832 42.912 15.584C43.408 16.336 43.656 17.2 43.656 18.176C43.656 19.712 43.136 20.904 42.096 21.752C41.072 22.584 39.776 23 38.208 23H33.912C33.368 23 32.968 22.88 32.712 22.64C32.472 22.4 32.352 22.008 32.352 21.464ZM34.752 13.184H38.064C38.816 13.184 39.416 12.944 39.864 12.464C40.312 11.984 40.536 11.368 40.536 10.616C40.536 9.864 40.312 9.264 39.864 8.816C39.416 8.352 38.8 8.12 38.016 8.12H34.752V13.184ZM34.752 20.408C34.752 20.76 34.928 20.936 35.28 20.936H38.328C39.208 20.936 39.904 20.672 40.416 20.144C40.928 19.616 41.184 18.92 41.184 18.056C41.184 17.192 40.92 16.496 40.392 15.968C39.864 15.424 39.168 15.152 38.304 15.152H34.752V20.408ZM43.977 16.928C43.977 15.024 44.553 13.488 45.705 12.32C46.857 11.152 48.313 10.568 50.073 10.568C51.721 10.568 53.001 11.112 53.913 12.2C54.841 13.272 55.305 14.624 55.305 16.256C55.305 16.528 55.281 16.856 55.233 17.24H46.377C46.441 18.504 46.873 19.496 47.673 20.216C48.473 20.92 49.441 21.272 50.577 21.272C50.833 21.272 51.081 21.256 51.321 21.224C51.577 21.176 51.809 21.112 52.017 21.032C52.241 20.952 52.441 20.88 52.617 20.816C52.793 20.736 52.969 20.64 53.145 20.528C53.337 20.416 53.481 20.328 53.577 20.264C53.673 20.2 53.793 20.12 53.937 20.024L54.153 19.856L55.137 21.56C54.865 21.784 54.545 22.008 54.177 22.232C53.809 22.456 53.265 22.688 52.545 22.928C51.841 23.168 51.137 23.288 50.433 23.288C48.545 23.288 46.993 22.688 45.777 21.488C44.577 20.272 43.977 18.752 43.977 16.928ZM46.473 15.56H52.977C52.945 14.552 52.649 13.768 52.089 13.208C51.545 12.648 50.857 12.368 50.025 12.368C49.113 12.368 48.329 12.656 47.673 13.232C47.033 13.792 46.633 14.568 46.473 15.56ZM55.3545 19.688C55.3545 16.856 57.8025 15.44 62.6985 15.44H63.2265V15.272C63.2265 14.248 63.0105 13.52 62.5785 13.088C62.1625 12.64 61.4825 12.416 60.5385 12.416C60.0905 12.416 59.6425 12.488 59.1945 12.632C58.7625 12.76 58.5465 13 58.5465 13.352V14.048H56.3385V12.824C56.3385 12.376 56.4985 11.992 56.8185 11.672C57.1385 11.336 57.5385 11.096 58.0185 10.952C58.5145 10.808 58.9625 10.712 59.3625 10.664C59.7625 10.6 60.1385 10.568 60.4905 10.568C62.3625 10.568 63.6745 10.984 64.4265 11.816C65.1785 12.648 65.5545 13.816 65.5545 15.32V20.48C65.5545 20.832 65.7305 21.008 66.0825 21.008H67.0665V23H64.8585C63.8665 23 63.3705 22.536 63.3705 21.608L63.3945 20.888H63.3465C63.3625 20.888 63.3225 20.976 63.2265 21.152C63.1465 21.312 63.0025 21.512 62.7945 21.752C62.6025 21.976 62.3625 22.208 62.0745 22.448C61.7865 22.672 61.4105 22.864 60.9465 23.024C60.4825 23.2 59.9785 23.288 59.4345 23.288C58.3145 23.288 57.3545 22.968 56.5545 22.328C55.7545 21.672 55.3545 20.792 55.3545 19.688ZM57.6825 19.472C57.6825 20 57.8825 20.464 58.2825 20.864C58.6825 21.248 59.2425 21.44 59.9625 21.44C60.9225 21.44 61.7065 21.04 62.3145 20.24C62.9225 19.44 63.2265 18.552 63.2265 17.576V17.12H62.6025C59.3225 17.12 57.6825 17.904 57.6825 19.472ZM67.8656 18.632V13.376C67.8656 13.024 67.6896 12.848 67.3376 12.848H66.3536V10.856H68.6336C69.1776 10.856 69.5696 10.976 69.8096 11.216C70.0496 11.456 70.1696 11.832 70.1696 12.344V18.104C70.1696 19.064 70.3296 19.808 70.6496 20.336C70.9696 20.864 71.5696 21.128 72.4496 21.128C73.6496 21.128 74.6096 20.68 75.3296 19.784C76.0496 18.888 76.4096 17.808 76.4096 16.544V10.856H78.7376V20.48C78.7376 20.832 78.9136 21.008 79.2656 21.008H80.2496V23H78.0176C76.9936 23 76.4816 22.552 76.4816 21.656V21.2L76.5056 20.504H76.4576C76.1536 21.208 75.6016 21.848 74.8016 22.424C74.0176 23 73.0816 23.288 71.9936 23.288C70.6176 23.288 69.5856 22.912 68.8976 22.16C68.2096 21.392 67.8656 20.216 67.8656 18.632ZM81.3101 18.56V12.728H79.7261V10.856H81.3581V7.52H83.6381V10.856H86.5661V12.728H83.6381V18.296C83.6381 18.76 83.7021 19.168 83.8301 19.52C83.9581 19.856 84.1101 20.12 84.2861 20.312C84.4781 20.504 84.6941 20.656 84.9341 20.768C85.1901 20.88 85.4141 20.952 85.6061 20.984C85.8141 21.016 86.0221 21.032 86.2301 21.032L86.7821 20.984V23.048C86.5581 23.08 86.2861 23.096 85.9661 23.096C85.5821 23.096 85.2141 23.072 84.8621 23.024C84.5101 22.976 84.1101 22.856 83.6621 22.664C83.2141 22.472 82.8221 22.224 82.4861 21.92C82.1661 21.6 81.8861 21.152 81.6461 20.576C81.4221 20 81.3101 19.328 81.3101 18.56ZM88.6571 28.04C88.1291 28.04 87.6251 27.936 87.1451 27.728C86.6651 27.536 86.3211 27.336 86.1131 27.128L85.8011 26.84L86.7611 25.16C86.7771 25.208 86.8571 25.296 87.0011 25.424C87.1451 25.552 87.3611 25.68 87.6491 25.808C87.9371 25.952 88.2331 26.024 88.5371 26.024C89.4651 26.024 90.1771 25.44 90.6731 24.272L91.2251 22.952L87.0731 13.328C86.9291 13.008 86.6811 12.848 86.3291 12.848H86.0171V10.856H87.3851C87.8811 10.856 88.2491 10.944 88.4891 11.12C88.7291 11.28 88.9451 11.6 89.1371 12.08L91.8731 18.92L92.3051 20.384H92.3531C92.4811 19.824 92.6171 19.336 92.7611 18.92L95.3051 12.08C95.4651 11.6 95.6731 11.28 95.9291 11.12C96.1851 10.944 96.5611 10.856 97.0571 10.856H98.4491V12.848H98.1371C97.7691 12.848 97.5131 13.008 97.3691 13.328L92.5931 25.184C92.2091 26.112 91.6731 26.816 90.9851 27.296C90.2971 27.792 89.5211 28.04 88.6571 28.04ZM99.4386 23V8.12H97.8786V6.056H105.343C106.911 6.056 108.191 6.544 109.183 7.52C110.175 8.48 110.671 9.76 110.671 11.36C110.671 12.96 110.175 14.256 109.183 15.248C108.191 16.24 106.911 16.736 105.343 16.736H101.839V23H99.4386ZM101.839 14.672H104.959C105.967 14.672 106.759 14.376 107.335 13.784C107.911 13.192 108.199 12.384 108.199 11.36C108.199 10.352 107.911 9.56 107.335 8.984C106.775 8.408 105.991 8.12 104.983 8.12H101.839V14.672ZM111.294 21.464V8.576C111.294 8.224 111.118 8.048 110.766 8.048H109.806V6.056H112.086C112.63 6.056 113.022 6.176 113.262 6.416C113.502 6.656 113.622 7.048 113.622 7.592V20.48C113.622 20.832 113.798 21.008 114.15 21.008H115.134V23H112.854C112.31 23 111.91 22.88 111.654 22.64C111.414 22.4 111.294 22.008 111.294 21.464ZM114.894 19.688C114.894 16.856 117.342 15.44 122.238 15.44H122.766V15.272C122.766 14.248 122.55 13.52 122.118 13.088C121.702 12.64 121.022 12.416 120.078 12.416C119.63 12.416 119.182 12.488 118.734 12.632C118.302 12.76 118.086 13 118.086 13.352V14.048H115.878V12.824C115.878 12.376 116.038 11.992 116.358 11.672C116.678 11.336 117.078 11.096 117.558 10.952C118.054 10.808 118.502 10.712 118.902 10.664C119.302 10.6 119.678 10.568 120.03 10.568C121.902 10.568 123.214 10.984 123.966 11.816C124.718 12.648 125.094 13.816 125.094 15.32V20.48C125.094 20.832 125.27 21.008 125.622 21.008H126.606V23H124.398C123.406 23 122.91 22.536 122.91 21.608L122.934 20.888H122.886C122.902 20.888 122.862 20.976 122.766 21.152C122.686 21.312 122.542 21.512 122.334 21.752C122.142 21.976 121.902 22.208 121.614 22.448C121.326 22.672 120.95 22.864 120.486 23.024C120.022 23.2 119.518 23.288 118.974 23.288C117.854 23.288 116.894 22.968 116.094 22.328C115.294 21.672 114.894 20.792 114.894 19.688ZM117.222 19.472C117.222 20 117.422 20.464 117.822 20.864C118.222 21.248 118.782 21.44 119.502 21.44C120.462 21.44 121.246 21.04 121.854 20.24C122.462 19.44 122.766 18.552 122.766 17.576V17.12H122.142C118.862 17.12 117.222 17.904 117.222 19.472ZM127.525 23V13.376C127.525 13.024 127.349 12.848 126.997 12.848H126.013V10.856H128.245C129.269 10.856 129.781 11.304 129.781 12.2V12.656L129.733 13.352H129.781C130.101 12.664 130.645 12.032 131.413 11.456C132.197 10.864 133.181 10.568 134.365 10.568C137.133 10.568 138.517 12.12 138.517 15.224V20.48C138.517 20.832 138.693 21.008 139.045 21.008H140.029V23H137.725C137.181 23 136.789 22.88 136.549 22.64C136.309 22.4 136.189 22.008 136.189 21.464V15.752C136.189 14.776 136.029 14.024 135.709 13.496C135.405 12.968 134.805 12.704 133.909 12.704C132.997 12.704 132.189 12.984 131.485 13.544C130.797 14.088 130.325 14.8 130.069 15.68C129.925 16.096 129.853 16.64 129.853 17.312V23H127.525ZM140.99 18.56V12.728H139.406V10.856H141.038V7.52H143.318V10.856H146.246V12.728H143.318V18.296C143.318 18.76 143.382 19.168 143.51 19.52C143.638 19.856 143.79 20.12 143.966 20.312C144.158 20.504 144.374 20.656 144.614 20.768C144.87 20.88 145.094 20.952 145.286 20.984C145.494 21.016 145.702 21.032 145.91 21.032L146.462 20.984V23.048C146.238 23.08 145.966 23.096 145.646 23.096C145.262 23.096 144.894 23.072 144.542 23.024C144.19 22.976 143.79 22.856 143.342 22.664C142.894 22.472 142.502 22.224 142.166 21.92C141.846 21.6 141.566 21.152 141.326 20.576C141.102 20 140.99 19.328 140.99 18.56ZM146.105 21.152L147.281 19.592C147.313 19.64 147.369 19.704 147.449 19.784C147.529 19.864 147.689 20.008 147.929 20.216C148.185 20.424 148.441 20.608 148.697 20.768C148.969 20.928 149.313 21.072 149.729 21.2C150.145 21.328 150.561 21.392 150.977 21.392C151.569 21.392 152.065 21.256 152.465 20.984C152.865 20.712 153.065 20.328 153.065 19.832C153.065 19.432 152.833 19.08 152.369 18.776C151.921 18.472 151.369 18.2 150.713 17.96C150.073 17.704 149.433 17.424 148.793 17.12C148.153 16.816 147.601 16.4 147.137 15.872C146.689 15.328 146.465 14.696 146.465 13.976C146.465 12.872 146.889 12.032 147.737 11.456C148.585 10.864 149.665 10.568 150.977 10.568C151.921 10.568 152.817 10.76 153.665 11.144C154.529 11.512 154.961 12.104 154.961 12.92V14.072H152.873V13.472C152.873 13.152 152.673 12.904 152.273 12.728C151.889 12.536 151.481 12.44 151.049 12.44C150.345 12.44 149.785 12.568 149.369 12.824C148.969 13.064 148.769 13.416 148.769 13.88C148.769 14.296 148.993 14.664 149.441 14.984C149.905 15.288 150.465 15.56 151.121 15.8C151.777 16.024 152.425 16.28 153.065 16.568C153.721 16.856 154.273 17.272 154.721 17.816C155.185 18.344 155.417 18.984 155.417 19.736C155.417 20.808 154.993 21.672 154.145 22.328C153.313 22.968 152.249 23.288 150.953 23.288C150.345 23.288 149.761 23.216 149.201 23.072C148.657 22.928 148.201 22.752 147.833 22.544C147.481 22.336 147.161 22.128 146.873 21.92C146.601 21.696 146.409 21.512 146.297 21.368L146.105 21.152Z" fill="#2C4543"/>
<path d="M3.41699 10.875C3.41699 14.0797 4.69005 17.1531 6.95612 19.4192C9.22218 21.6853 12.2956 22.9583 15.5003 22.9583C18.705 22.9583 21.7785 21.6853 24.0445 19.4192C26.3106 17.1531 27.5837 14.0797 27.5837 10.875" stroke="#2C4543" stroke-width="2" stroke-linecap="round" stroke-linejoin="round"/>
<path d="M15.5 22.9583C15.5 19.7536 16.7731 16.6802 19.0391 14.4141C21.3052 12.1481 24.3786 10.875 27.5833 10.875" stroke="#2C4543" stroke-width="2" stroke-linecap="round" stroke-linejoin="round"/>
<path d="M3.41699 10.875C5.0038 10.875 6.57507 11.1875 8.04108 11.7948C9.5071 12.402 10.8392 13.2921 11.9612 14.4141C13.0832 15.5362 13.9733 16.8682 14.5805 18.3342C15.1878 19.8003 15.5003 21.3715 15.5003 22.9583" stroke="#2C4543" stroke-width="2" stroke-linecap="round" stroke-linejoin="round"/>
<path d="M15.5 4.83331C16.7177 5.9958 17.6707 7.40696 18.2942 8.97079C18.9176 10.5346 19.1969 12.2144 19.1129 13.8958" stroke="#2C4543" stroke-width="2" stroke-linecap="round" stroke-linejoin="round"/>
<path d="M11.8876 13.8958C11.8037 12.2144 12.0829 10.5346 12.7064 8.97079C13.3298 7.40696 14.2828 5.9958 15.5005 4.83331" stroke="#2C4543" stroke-width="2" stroke-linecap="round" stroke-linejoin="round"/>
</svg>
