<svg width="24" height="24" viewBox="0 0 24 24" fill="none" xmlns="http://www.w3.org/2000/svg">
<path fill-rule="evenodd" clip-rule="evenodd" d="M1.49866 12C1.49866 11.8011 1.57768 11.6103 1.71833 11.4697C1.85898 11.329 2.04975 11.25 2.24866 11.25H19.9382L15.2177 6.531C15.1479 6.46127 15.0926 6.37849 15.0549 6.28738C15.0171 6.19627 14.9977 6.09862 14.9977 6C14.9977 5.90139 15.0171 5.80374 15.0549 5.71263C15.0926 5.62152 15.1479 5.53873 15.2177 5.469C15.2874 5.39927 15.3702 5.34396 15.4613 5.30622C15.5524 5.26848 15.65 5.24905 15.7487 5.24905C15.8473 5.24905 15.9449 5.26848 16.036 5.30622C16.1271 5.34396 16.2099 5.39927 16.2797 5.469L22.2797 11.469C22.3495 11.5387 22.4049 11.6214 22.4427 11.7126C22.4805 11.8037 22.5 11.9014 22.5 12C22.5 12.0987 22.4805 12.1963 22.4427 12.2875C22.4049 12.3786 22.3495 12.4613 22.2797 12.531L16.2797 18.531C16.2099 18.6007 16.1271 18.656 16.036 18.6938C15.9449 18.7315 15.8473 18.7509 15.7487 18.7509C15.65 18.7509 15.5524 18.7315 15.4613 18.6938C15.3702 18.656 15.2874 18.6007 15.2177 18.531C15.1479 18.4613 15.0926 18.3785 15.0549 18.2874C15.0171 18.1963 14.9977 18.0986 14.9977 18C14.9977 17.9014 15.0171 17.8037 15.0549 17.7126C15.0926 17.6215 15.1479 17.5387 15.2177 17.469L19.9382 12.75H2.24866C2.04975 12.75 1.85898 12.671 1.71833 12.5303C1.57768 12.3897 1.49866 12.1989 1.49866 12Z" fill="#2C4543"/>
</svg>
