<svg width="17" height="17" viewBox="0 0 17 17" fill="none" xmlns="http://www.w3.org/2000/svg">
<path d="M13.095 16.7357C12.9362 16.7352 12.7779 16.7178 12.6228 16.6837C9.66981 16.0729 6.94933 14.6406 4.77445 12.5518C2.64599 10.4584 1.16979 7.79301 0.524456 4.87818C0.448362 4.5149 0.467039 4.13816 0.578688 3.78419C0.690337 3.43022 0.891201 3.11094 1.16196 2.85707L3.05084 1.03901C3.14732 0.947773 3.26196 0.877904 3.38726 0.833965C3.51257 0.790026 3.64574 0.773005 3.77807 0.784012C3.91528 0.798327 4.04769 0.842527 4.16598 0.913504C4.28428 0.984482 4.38559 1.08051 4.46279 1.19485L6.8239 4.68457C6.91244 4.81997 6.95518 4.98023 6.94583 5.14174C6.93648 5.30326 6.87553 5.45751 6.77195 5.58179L5.58668 6.99846C6.05873 8.04322 6.72726 8.98749 7.55584 9.77984C8.37907 10.6009 9.3521 11.2566 10.4222 11.7112L11.8908 10.5448C12.0142 10.4474 12.1643 10.3897 12.3212 10.3796C12.4781 10.3695 12.6343 10.4074 12.7692 10.4882L16.3345 12.7926C16.4568 12.8657 16.561 12.9655 16.6393 13.0845C16.7176 13.2036 16.768 13.3388 16.7866 13.4801C16.8053 13.6214 16.7917 13.765 16.7469 13.9003C16.7021 14.0356 16.6273 14.159 16.5281 14.2612L14.6864 16.084C14.4772 16.2922 14.2289 16.4569 13.9558 16.5688C13.6827 16.6806 13.3901 16.7373 13.095 16.7357V16.7357ZM3.70251 1.71901L1.81362 3.53707C1.66131 3.67899 1.54856 3.85812 1.48646 4.05683C1.42436 4.25555 1.41506 4.467 1.45946 4.6704C2.05952 7.40558 3.43888 9.90843 5.43084 11.8765C7.47755 13.8417 10.0377 15.1889 12.8164 15.7629C13.0267 15.8069 13.2447 15.798 13.4507 15.737C13.6568 15.676 13.8444 15.5648 13.997 15.4135L15.8386 13.5907L12.3961 11.3665L10.8189 12.6226C10.7585 12.6704 10.6874 12.7027 10.6116 12.7167C10.5359 12.7307 10.4579 12.726 10.3845 12.7029C9.07484 12.2204 7.88803 11.4544 6.9089 10.4598C5.89615 9.51408 5.11003 8.35185 4.60918 7.05985C4.58799 6.98163 4.58728 6.89928 4.60713 6.82071C4.62698 6.74214 4.66672 6.67 4.72251 6.61123L5.99751 5.08596L3.70251 1.71901Z" fill="#2C4543" fill-opacity="0.6"/>
</svg>
