<svg width="59" height="59" viewBox="0 0 59 59" fill="none" xmlns="http://www.w3.org/2000/svg">
<path d="M29.6966 15.1646C29.6966 15.1646 20.9328 16.0367 16.3443 12.2149C11.7558 8.39019 12.8018 1.08564 12.8018 1.08564C12.8018 1.08564 21.5655 0.213538 26.1569 4.03539C30.7454 7.86009 29.6966 15.1646 29.6966 15.1646V15.1646Z" stroke="#2C4543" stroke-width="2" stroke-linecap="round" stroke-linejoin="round"/>
<path d="M29.9033 15.1646C29.9033 15.1646 38.6671 16.0367 43.2556 12.2149C47.8441 8.39019 46.7982 1.08564 46.7982 1.08564C46.7982 1.08564 38.0344 0.213538 33.4459 4.03539C28.8574 7.86009 29.9033 15.1646 29.9033 15.1646V15.1646Z" stroke="#2C4543" stroke-width="2" stroke-linecap="round" stroke-linejoin="round"/>
<path d="M7 26.65C7 25.8942 7.30027 25.1693 7.83475 24.6348C8.36923 24.1003 9.09413 23.8 9.85 23.8H49.75C50.5059 23.8 51.2308 24.1003 51.7653 24.6348C52.2997 25.1693 52.6 25.8942 52.6 26.65V32.35C52.6 33.1059 52.2997 33.8308 51.7653 34.3653C51.2308 34.8998 50.5059 35.2 49.75 35.2H9.85C9.09413 35.2 8.36923 34.8998 7.83475 34.3653C7.30027 33.8308 7 33.1059 7 32.35V26.65Z" stroke="#2C4543" stroke-width="2" stroke-linecap="round" stroke-linejoin="round"/>
<path d="M9.84961 35.2H49.7496L44.0496 58H15.5496L9.84961 35.2Z" stroke="#2C4543" stroke-width="2" stroke-linecap="round" stroke-linejoin="round"/>
</svg>
