<svg width="59" height="59" viewBox="0 0 59 59" fill="none" xmlns="http://www.w3.org/2000/svg">
<path d="M20.3008 38.6377L38.6367 20.3018" stroke="#2C4543" stroke-width="2" stroke-linecap="round" stroke-linejoin="round"/>
<path d="M21.8288 23.3577C22.6727 23.3577 23.3568 22.6736 23.3568 21.8297C23.3568 20.9859 22.6727 20.3018 21.8288 20.3018C20.9849 20.3018 20.3008 20.9859 20.3008 21.8297C20.3008 22.6736 20.9849 23.3577 21.8288 23.3577Z" fill="#2C4543" stroke="#2C4543" stroke-width="2" stroke-linecap="round" stroke-linejoin="round"/>
<path d="M37.11 38.6375C37.9539 38.6375 38.638 37.9534 38.638 37.1095C38.638 36.2656 37.9539 35.5815 37.11 35.5815C36.2661 35.5815 35.582 36.2656 35.582 37.1095C35.582 37.9534 36.2661 38.6375 37.11 38.6375Z" fill="#2C4543" stroke="#2C4543" stroke-width="2" stroke-linecap="round" stroke-linejoin="round"/>
<path d="M8.07756 14.8007C8.07756 13.0176 8.78589 11.3076 10.0467 10.0467C11.3076 8.78589 13.0176 8.07756 14.8007 8.07756H17.8567C19.6319 8.07655 21.3347 7.37347 22.5935 6.12173L24.7327 3.98255C25.3575 3.35424 26.1003 2.85563 26.9184 2.51539C27.7366 2.17515 28.6139 2 29.5 2C30.3861 2 31.2634 2.17515 32.0816 2.51539C32.8997 2.85563 33.6425 3.35424 34.2673 3.98255L36.4065 6.12173C37.6653 7.37347 39.3681 8.07655 41.1433 8.07756H44.1993C45.9824 8.07756 47.6924 8.78589 48.9533 10.0467C50.2141 11.3076 50.9224 13.0176 50.9224 14.8007V17.8567C50.9235 19.6319 51.6265 21.3347 52.8783 22.5935L55.0175 24.7327C55.6458 25.3575 56.1444 26.1003 56.4846 26.9184C56.8248 27.7366 57 28.6139 57 29.5C57 30.3861 56.8248 31.2634 56.4846 32.0816C56.1444 32.8997 55.6458 33.6425 55.0175 34.2673L52.8783 36.4065C51.6265 37.6653 50.9235 39.3681 50.9224 41.1433V44.1993C50.9224 45.9824 50.2141 47.6924 48.9533 48.9533C47.6924 50.2141 45.9824 50.9224 44.1993 50.9224H41.1433C39.3681 50.9235 37.6653 51.6265 36.4065 52.8783L34.2673 55.0175C33.6425 55.6458 32.8997 56.1444 32.0816 56.4846C31.2634 56.8248 30.3861 57 29.5 57C28.6139 57 27.7366 56.8248 26.9184 56.4846C26.1003 56.1444 25.3575 55.6458 24.7327 55.0175L22.5935 52.8783C21.3347 51.6265 19.6319 50.9235 17.8567 50.9224H14.8007C13.0176 50.9224 11.3076 50.2141 10.0467 48.9533C8.78589 47.6924 8.07756 45.9824 8.07756 44.1993V41.1433C8.07655 39.3681 7.37347 37.6653 6.12173 36.4065L3.98255 34.2673C3.35424 33.6425 2.85563 32.8997 2.51539 32.0816C2.17515 31.2634 2 30.3861 2 29.5C2 28.6139 2.17515 27.7366 2.51539 26.9184C2.85563 26.1003 3.35424 25.3575 3.98255 24.7327L6.12173 22.5935C7.37347 21.3347 8.07655 19.6319 8.07756 17.8567V14.8007" stroke="#2C4543" stroke-width="2" stroke-linecap="round" stroke-linejoin="round"/>
</svg>
